<svg width="100%" viewBox="0 0 680 480" role="img" xmlns="http://www.w3.org/2000/svg">
<title style="fill:rgb(0, 0, 0);stroke:none;color:rgb(255, 255, 255);stroke-width:1px;stroke-linecap:butt;stroke-linejoin:miter;opacity:1;font-family:&quot;Anthropic Sans&quot;, -apple-system, BlinkMacSystemFont, &quot;Segoe UI&quot;, sans-serif;font-size:16px;font-weight:400;text-anchor:start;dominant-baseline:auto">JCER bus top view — all sizes</title>
<desc style="fill:rgb(0, 0, 0);stroke:none;color:rgb(255, 255, 255);stroke-width:1px;stroke-linecap:butt;stroke-linejoin:miter;opacity:1;font-family:&quot;Anthropic Sans&quot;, -apple-system, BlinkMacSystemFont, &quot;Segoe UI&quot;, sans-serif;font-size:16px;font-weight:400;text-anchor:start;dominant-baseline:auto">Three sizes of the JCER top-view bus SVG: large 60x100, medium 36x60, and compact 20x34 for different map zoom levels</desc>
<defs>
  <g id="bus">
    <rect x="-22" y="-50" width="44" height="100" rx="6" fill="#F5A623"/>
    <rect x="-22" y="-50" width="44" height="14" rx="6" fill="#E8960A"/>
    <rect x="-22" y="36" width="44" height="14" rx="6" fill="#D4820A"/>
    <rect x="-20" y="-46" width="40" height="2" rx="1" fill="#FFD166" opacity="0.7"/>
    <rect x="-20" y="44" width="40" height="2" rx="1" fill="#B06800" opacity="0.6"/>
    <rect x="-19" y="-34" width="38" height="18" rx="3" fill="#C8EDFF" stroke="#0077AA" stroke-width="1.2"/>
    <rect x="-18" y="-33" width="17" height="16" rx="2" fill="#A8DFFF"/>
    <rect x="1" y="-33" width="17" height="16" rx="2" fill="#A8DFFF"/>
    <line x1="-1" y1="-34" x2="-1" y2="-16" stroke="#0077AA" stroke-width="1"/>
    <rect x="-19" y="-12" width="38" height="14" rx="3" fill="#C8EDFF" stroke="#0077AA" stroke-width="1"/>
    <rect x="-18" y="-11" width="11" height="12" rx="2" fill="#A8DFFF"/>
    <rect x="-6" y="-11" width="11" height="12" rx="2" fill="#A8DFFF"/>
    <rect x="7" y="-11" width="11" height="12" rx="2" fill="#A8DFFF"/>
    <line x1="-7" y1="-12" x2="-7" y2="2" stroke="#0077AA" stroke-width="1"/>
    <line x1="6" y1="-12" x2="6" y2="2" stroke="#0077AA" stroke-width="1"/>
    <rect x="-19" y="4" width="38" height="14" rx="3" fill="#C8EDFF" stroke="#0077AA" stroke-width="1"/>
    <rect x="-18" y="5" width="11" height="12" rx="2" fill="#A8DFFF"/>
    <rect x="-6" y="5" width="11" height="12" rx="2" fill="#A8DFFF"/>
    <rect x="7" y="5" width="11" height="12" rx="2" fill="#A8DFFF"/>
    <line x1="-7" y1="4" x2="-7" y2="18" stroke="#0077AA" stroke-width="1"/>
    <line x1="6" y1="4" x2="6" y2="18" stroke="#0077AA" stroke-width="1"/>
    <rect x="-19" y="20" width="38" height="14" rx="3" fill="#C8EDFF" stroke="#0077AA" stroke-width="1"/>
    <rect x="-18" y="21" width="11" height="12" rx="2" fill="#A8DFFF"/>
    <rect x="-6" y="21" width="11" height="12" rx="2" fill="#A8DFFF"/>
    <rect x="7" y="21" width="11" height="12" rx="2" fill="#A8DFFF"/>
    <line x1="-7" y1="20" x2="-7" y2="34" stroke="#0077AA" stroke-width="1"/>
    <line x1="6" y1="20" x2="6" y2="34" stroke="#0077AA" stroke-width="1"/>
    <rect x="-30" y="-46" width="8" height="14" rx="3" fill="#E8960A" stroke="#C87A00" stroke-width="1"/>
    <rect x="22" y="-46" width="8" height="14" rx="3" fill="#E8960A" stroke="#C87A00" stroke-width="1"/>
    <rect x="-30" y="32" width="8" height="14" rx="3" fill="#E8960A" stroke="#C87A00" stroke-width="1"/>
    <rect x="22" y="32" width="8" height="14" rx="3" fill="#E8960A" stroke="#C87A00" stroke-width="1"/>
    <rect x="-22" y="-50" width="44" height="100" rx="6" fill="none" stroke="#C87A00" stroke-width="1.5"/>
    <rect x="-18" y="-49" width="8" height="5" rx="2" fill="#FFFDE0" stroke="#D4A000" stroke-width="0.8"/>
    <rect x="10" y="-49" width="8" height="5" rx="2" fill="#FFFDE0" stroke="#D4A000" stroke-width="0.8"/>
    <rect x="-18" y="44" width="8" height="5" rx="2" fill="#FF5555" stroke="#CC2200" stroke-width="0.8"/>
    <rect x="10" y="44" width="8" height="5" rx="2" fill="#FF5555" stroke="#CC2200" stroke-width="0.8"/>
    <rect x="-25" y="-48" width="3" height="96" rx="1" fill="#C87A00" opacity="0.4"/>
    <rect x="22" y="-48" width="3" height="96" rx="1" fill="#C87A00" opacity="0.4"/>
    <rect x="-36" y="-38" width="6" height="12" rx="3" fill="#E8960A" stroke="#C87A00" stroke-width="0.8"/>
    <rect x="30" y="-38" width="6" height="12" rx="3" fill="#E8960A" stroke="#C87A00" stroke-width="0.8"/>
  </g>

  <g id="bus-med">
    <rect x="-13" y="-30" width="26" height="60" rx="5" fill="#F5A623"/>
    <rect x="-13" y="-30" width="26" height="9" rx="5" fill="#E8960A"/>
    <rect x="-13" y="21" width="26" height="9" rx="5" fill="#D4820A"/>
    <rect x="-11" y="-29" width="22" height="2" rx="1" fill="#FFD166" opacity="0.7"/>
    <rect x="-11" y="27" width="22" height="2" rx="1" fill="#B06800" opacity="0.6"/>
    <rect x="-11" y="-20" width="22" height="11" rx="2" fill="#C8EDFF" stroke="#0077AA" stroke-width="1"/>
    <rect x="-10" y="-19" width="9" height="9" rx="1" fill="#A8DFFF"/>
    <rect x="1" y="-19" width="9" height="9" rx="1" fill="#A8DFFF"/>
    <line x1="0" y1="-20" x2="0" y2="-9" stroke="#0077AA" stroke-width="0.8"/>
    <rect x="-11" y="-7" width="22" height="9" rx="2" fill="#C8EDFF" stroke="#0077AA" stroke-width="0.8"/>
    <rect x="-10" y="-6" width="6" height="7" rx="1" fill="#A8DFFF"/>
    <rect x="-3" y="-6" width="6" height="7" rx="1" fill="#A8DFFF"/>
    <rect x="4" y="-6" width="6" height="7" rx="1" fill="#A8DFFF"/>
    <rect x="-11" y="4" width="22" height="9" rx="2" fill="#C8EDFF" stroke="#0077AA" stroke-width="0.8"/>
    <rect x="-10" y="5" width="6" height="7" rx="1" fill="#A8DFFF"/>
    <rect x="-3" y="5" width="6" height="7" rx="1" fill="#A8DFFF"/>
    <rect x="4" y="5" width="6" height="7" rx="1" fill="#A8DFFF"/>
    <rect x="-11" y="15" width="22" height="9" rx="2" fill="#C8EDFF" stroke="#0077AA" stroke-width="0.8"/>
    <rect x="-10" y="16" width="6" height="7" rx="1" fill="#A8DFFF"/>
    <rect x="-3" y="16" width="6" height="7" rx="1" fill="#A8DFFF"/>
    <rect x="4" y="16" width="6" height="7" rx="1" fill="#A8DFFF"/>
    <rect x="-18" y="-27" width="5" height="9" rx="2" fill="#E8960A" stroke="#C87A00" stroke-width="0.8"/>
    <rect x="13" y="-27" width="5" height="9" rx="2" fill="#E8960A" stroke="#C87A00" stroke-width="0.8"/>
    <rect x="-18" y="18" width="5" height="9" rx="2" fill="#E8960A" stroke="#C87A00" stroke-width="0.8"/>
    <rect x="13" y="18" width="5" height="9" rx="2" fill="#E8960A" stroke="#C87A00" stroke-width="0.8"/>
    <rect x="-13" y="-30" width="26" height="60" rx="5" fill="none" stroke="#C87A00" stroke-width="1.2"/>
    <rect x="-10" y="-30" width="5" height="3" rx="1" fill="#FFFDE0"/>
    <rect x="5" y="-30" width="5" height="3" rx="1" fill="#FFFDE0"/>
    <rect x="-10" y="27" width="5" height="3" rx="1" fill="#FF5555"/>
    <rect x="5" y="27" width="5" height="3" rx="1" fill="#FF5555"/>
    <rect x="-21" y="-22" width="3" height="8" rx="2" fill="#E8960A" stroke="#C87A00" stroke-width="0.5"/>
    <rect x="18" y="-22" width="3" height="8" rx="2" fill="#E8960A" stroke="#C87A00" stroke-width="0.5"/>
  </g>

  <g id="bus-sm">
    <rect x="-7" y="-17" width="14" height="34" rx="3" fill="#F5A623"/>
    <rect x="-7" y="-17" width="14" height="6" rx="3" fill="#E8960A"/>
    <rect x="-7" y="11" width="14" height="6" rx="3" fill="#D4820A"/>
    <rect x="-6" y="-11" width="12" height="7" rx="2" fill="#C8EDFF" stroke="#0077AA" stroke-width="0.8"/>
    <rect x="-5" y="-10" width="4" height="5" rx="1" fill="#A8DFFF"/>
    <rect x="1" y="-10" width="4" height="5" rx="1" fill="#A8DFFF"/>
    <rect x="-6" y="-2" width="12" height="6" rx="1" fill="#C8EDFF" stroke="#0077AA" stroke-width="0.8"/>
    <rect x="-5" y="-1" width="3" height="4" rx="1" fill="#A8DFFF"/>
    <rect x="-1" y="-1" width="3" height="4" rx="1" fill="#A8DFFF"/>
    <rect x="3" y="-1" width="3" height="4" rx="1" fill="#A8DFFF"/>
    <rect x="-6" y="6" width="12" height="6" rx="1" fill="#C8EDFF" stroke="#0077AA" stroke-width="0.8"/>
    <rect x="-5" y="7" width="3" height="4" rx="1" fill="#A8DFFF"/>
    <rect x="-1" y="7" width="3" height="4" rx="1" fill="#A8DFFF"/>
    <rect x="3" y="7" width="3" height="4" rx="1" fill="#A8DFFF"/>
    <rect x="-10" y="-14" width="3" height="6" rx="2" fill="#E8960A" stroke="#C87A00" stroke-width="0.5"/>
    <rect x="7" y="-14" width="3" height="6" rx="2" fill="#E8960A" stroke="#C87A00" stroke-width="0.5"/>
    <rect x="-10" y="8" width="3" height="6" rx="2" fill="#E8960A" stroke="#C87A00" stroke-width="0.5"/>
    <rect x="7" y="8" width="3" height="6" rx="2" fill="#E8960A" stroke="#C87A00" stroke-width="0.5"/>
    <rect x="-7" y="-17" width="14" height="34" rx="3" fill="none" stroke="#C87A00" stroke-width="1"/>
    <rect x="-5" y="-17" width="4" height="2" rx="1" fill="#FFFDE0"/>
    <rect x="1" y="-17" width="4" height="2" rx="1" fill="#FFFDE0"/>
    <rect x="-5" y="15" width="4" height="2" rx="1" fill="#FF5555"/>
    <rect x="1" y="15" width="4" height="2" rx="1" fill="#FF5555"/>
    <rect x="-12" y="-12" width="2" height="5" rx="1" fill="#E8960A"/>
    <rect x="10" y="-12" width="2" height="5" rx="1" fill="#E8960A"/>
  </g>
</defs>

<text x="340" y="32" text-anchor="middle" font-family="sans-serif" font-size="13" font-weight="500" fill="#888780" style="fill:rgb(136, 135, 128);stroke:none;color:rgb(255, 255, 255);stroke-width:1px;stroke-linecap:butt;stroke-linejoin:miter;opacity:1;font-family:sans-serif;font-size:13px;font-weight:500;text-anchor:middle;dominant-baseline:auto">Three sizes — use based on map zoom level</text>

<line x1="40" y1="50" x2="40" y2="470" stroke="#444441" stroke-width="0.5" stroke-dasharray="4,4" style="fill:rgb(0, 0, 0);stroke:rgb(68, 68, 65);color:rgb(255, 255, 255);stroke-width:0.5px;stroke-dasharray:4px, 4px;stroke-linecap:butt;stroke-linejoin:miter;opacity:1;font-family:&quot;Anthropic Sans&quot;, -apple-system, BlinkMacSystemFont, &quot;Segoe UI&quot;, sans-serif;font-size:16px;font-weight:400;text-anchor:start;dominant-baseline:auto"/>
<line x1="260" y1="50" x2="260" y2="470" stroke="#444441" stroke-width="0.5" stroke-dasharray="4,4" style="fill:rgb(0, 0, 0);stroke:rgb(68, 68, 65);color:rgb(255, 255, 255);stroke-width:0.5px;stroke-dasharray:4px, 4px;stroke-linecap:butt;stroke-linejoin:miter;opacity:1;font-family:&quot;Anthropic Sans&quot;, -apple-system, BlinkMacSystemFont, &quot;Segoe UI&quot;, sans-serif;font-size:16px;font-weight:400;text-anchor:start;dominant-baseline:auto"/>
<line x1="460" y1="50" x2="460" y2="470" stroke="#444441" stroke-width="0.5" stroke-dasharray="4,4" style="fill:rgb(0, 0, 0);stroke:rgb(68, 68, 65);color:rgb(255, 255, 255);stroke-width:0.5px;stroke-dasharray:4px, 4px;stroke-linecap:butt;stroke-linejoin:miter;opacity:1;font-family:&quot;Anthropic Sans&quot;, -apple-system, BlinkMacSystemFont, &quot;Segoe UI&quot;, sans-serif;font-size:16px;font-weight:400;text-anchor:start;dominant-baseline:auto"/>
<line x1="640" y1="50" x2="640" y2="470" stroke="#444441" stroke-width="0.5" stroke-dasharray="4,4" style="fill:rgb(0, 0, 0);stroke:rgb(68, 68, 65);color:rgb(255, 255, 255);stroke-width:0.5px;stroke-dasharray:4px, 4px;stroke-linecap:butt;stroke-linejoin:miter;opacity:1;font-family:&quot;Anthropic Sans&quot;, -apple-system, BlinkMacSystemFont, &quot;Segoe UI&quot;, sans-serif;font-size:16px;font-weight:400;text-anchor:start;dominant-baseline:auto"/>

<rect x="44" y="55" width="212" height="410" rx="10" fill="#2C2C2A" opacity="0.25" style="fill:rgb(44, 44, 42);stroke:none;color:rgb(255, 255, 255);stroke-width:1px;stroke-linecap:butt;stroke-linejoin:miter;opacity:0.25;font-family:&quot;Anthropic Sans&quot;, -apple-system, BlinkMacSystemFont, &quot;Segoe UI&quot;, sans-serif;font-size:16px;font-weight:400;text-anchor:start;dominant-baseline:auto"/>
<rect x="264" y="55" width="192" height="410" rx="10" fill="#2C2C2A" opacity="0.25" style="fill:rgb(44, 44, 42);stroke:none;color:rgb(255, 255, 255);stroke-width:1px;stroke-linecap:butt;stroke-linejoin:miter;opacity:0.25;font-family:&quot;Anthropic Sans&quot;, -apple-system, BlinkMacSystemFont, &quot;Segoe UI&quot;, sans-serif;font-size:16px;font-weight:400;text-anchor:start;dominant-baseline:auto"/>
<rect x="464" y="55" width="172" height="410" rx="10" fill="#2C2C2A" opacity="0.25" style="fill:rgb(44, 44, 42);stroke:none;color:rgb(255, 255, 255);stroke-width:1px;stroke-linecap:butt;stroke-linejoin:miter;opacity:0.25;font-family:&quot;Anthropic Sans&quot;, -apple-system, BlinkMacSystemFont, &quot;Segoe UI&quot;, sans-serif;font-size:16px;font-weight:400;text-anchor:start;dominant-baseline:auto"/>

<text x="150" y="78" text-anchor="middle" font-family="sans-serif" font-size="12" font-weight="500" fill="#D3D1C7" style="fill:rgb(211, 209, 199);stroke:none;color:rgb(255, 255, 255);stroke-width:1px;stroke-linecap:butt;stroke-linejoin:miter;opacity:1;font-family:sans-serif;font-size:12px;font-weight:500;text-anchor:middle;dominant-baseline:auto">Large — zoom 15+</text>
<text x="150" y="94" text-anchor="middle" font-family="sans-serif" font-size="11" fill="#888780" style="fill:rgb(136, 135, 128);stroke:none;color:rgb(255, 255, 255);stroke-width:1px;stroke-linecap:butt;stroke-linejoin:miter;opacity:1;font-family:sans-serif;font-size:11px;font-weight:400;text-anchor:middle;dominant-baseline:auto">60 x 100 px</text>

<text x="360" y="78" text-anchor="middle" font-family="sans-serif" font-size="12" font-weight="500" fill="#D3D1C7" style="fill:rgb(211, 209, 199);stroke:none;color:rgb(255, 255, 255);stroke-width:1px;stroke-linecap:butt;stroke-linejoin:miter;opacity:1;font-family:sans-serif;font-size:12px;font-weight:500;text-anchor:middle;dominant-baseline:auto">Medium — zoom 13–14</text>
<text x="360" y="94" text-anchor="middle" font-family="sans-serif" font-size="11" fill="#888780" style="fill:rgb(136, 135, 128);stroke:none;color:rgb(255, 255, 255);stroke-width:1px;stroke-linecap:butt;stroke-linejoin:miter;opacity:1;font-family:sans-serif;font-size:11px;font-weight:400;text-anchor:middle;dominant-baseline:auto">36 x 60 px</text>

<text x="550" y="78" text-anchor="middle" font-family="sans-serif" font-size="12" font-weight="500" fill="#D3D1C7" style="fill:rgb(211, 209, 199);stroke:none;color:rgb(255, 255, 255);stroke-width:1px;stroke-linecap:butt;stroke-linejoin:miter;opacity:1;font-family:sans-serif;font-size:12px;font-weight:500;text-anchor:middle;dominant-baseline:auto">Compact — zoom 11–12</text>
<text x="550" y="94" text-anchor="middle" font-family="sans-serif" font-size="11" fill="#888780" style="fill:rgb(136, 135, 128);stroke:none;color:rgb(255, 255, 255);stroke-width:1px;stroke-linecap:butt;stroke-linejoin:miter;opacity:1;font-family:sans-serif;font-size:11px;font-weight:400;text-anchor:middle;dominant-baseline:auto">20 x 34 px</text>

<g transform="translate(150,270) scale(1.18)" style="fill:rgb(0, 0, 0);stroke:none;color:rgb(255, 255, 255);stroke-width:1px;stroke-linecap:butt;stroke-linejoin:miter;opacity:1;font-family:&quot;Anthropic Sans&quot;, -apple-system, BlinkMacSystemFont, &quot;Segoe UI&quot;, sans-serif;font-size:16px;font-weight:400;text-anchor:start;dominant-baseline:auto">
  <use href="#bus" style="fill:rgb(0, 0, 0);stroke:none;color:rgb(255, 255, 255);stroke-width:1px;stroke-linecap:butt;stroke-linejoin:miter;opacity:1;font-family:&quot;Anthropic Sans&quot;, -apple-system, BlinkMacSystemFont, &quot;Segoe UI&quot;, sans-serif;font-size:16px;font-weight:400;text-anchor:start;dominant-baseline:auto"/>
</g>

<g transform="translate(360,270) scale(0.72)" style="fill:rgb(0, 0, 0);stroke:none;color:rgb(255, 255, 255);stroke-width:1px;stroke-linecap:butt;stroke-linejoin:miter;opacity:1;font-family:&quot;Anthropic Sans&quot;, -apple-system, BlinkMacSystemFont, &quot;Segoe UI&quot;, sans-serif;font-size:16px;font-weight:400;text-anchor:start;dominant-baseline:auto">
  <use href="#bus-med" style="fill:rgb(0, 0, 0);stroke:none;color:rgb(255, 255, 255);stroke-width:1px;stroke-linecap:butt;stroke-linejoin:miter;opacity:1;font-family:&quot;Anthropic Sans&quot;, -apple-system, BlinkMacSystemFont, &quot;Segoe UI&quot;, sans-serif;font-size:16px;font-weight:400;text-anchor:start;dominant-baseline:auto"/>
</g>

<g transform="translate(550,270) scale(0.56)" style="fill:rgb(0, 0, 0);stroke:none;color:rgb(255, 255, 255);stroke-width:1px;stroke-linecap:butt;stroke-linejoin:miter;opacity:1;font-family:&quot;Anthropic Sans&quot;, -apple-system, BlinkMacSystemFont, &quot;Segoe UI&quot;, sans-serif;font-size:16px;font-weight:400;text-anchor:start;dominant-baseline:auto">
  <use href="#bus-sm" style="fill:rgb(0, 0, 0);stroke:none;color:rgb(255, 255, 255);stroke-width:1px;stroke-linecap:butt;stroke-linejoin:miter;opacity:1;font-family:&quot;Anthropic Sans&quot;, -apple-system, BlinkMacSystemFont, &quot;Segoe UI&quot;, sans-serif;font-size:16px;font-weight:400;text-anchor:start;dominant-baseline:auto"/>
</g>

<rect x="68" y="140" width="164" height="16" rx="4" fill="#1D9E75" opacity="0.2" style="fill:rgb(29, 158, 117);stroke:none;color:rgb(255, 255, 255);stroke-width:1px;stroke-linecap:butt;stroke-linejoin:miter;opacity:0.2;font-family:&quot;Anthropic Sans&quot;, -apple-system, BlinkMacSystemFont, &quot;Segoe UI&quot;, sans-serif;font-size:16px;font-weight:400;text-anchor:start;dominant-baseline:auto"/>
<text x="150" y="152" text-anchor="middle" font-family="sans-serif" font-size="10" fill="#1D9E75" style="fill:rgb(29, 158, 117);stroke:none;color:rgb(255, 255, 255);stroke-width:1px;stroke-linecap:butt;stroke-linejoin:miter;opacity:1;font-family:sans-serif;font-size:10px;font-weight:400;text-anchor:middle;dominant-baseline:auto">FRONT (heading direction)</text>

<line x1="150" y1="159" x2="150" y2="172" stroke="#1D9E75" stroke-width="1" stroke-dasharray="3,2" style="fill:rgb(0, 0, 0);stroke:rgb(29, 158, 117);color:rgb(255, 255, 255);stroke-width:1px;stroke-dasharray:3px, 2px;stroke-linecap:butt;stroke-linejoin:miter;opacity:1;font-family:&quot;Anthropic Sans&quot;, -apple-system, BlinkMacSystemFont, &quot;Segoe UI&quot;, sans-serif;font-size:16px;font-weight:400;text-anchor:start;dominant-baseline:auto"/>
<polygon points="146,172 150,180 154,172" fill="#1D9E75" style="fill:rgb(29, 158, 117);stroke:none;color:rgb(255, 255, 255);stroke-width:1px;stroke-linecap:butt;stroke-linejoin:miter;opacity:1;font-family:&quot;Anthropic Sans&quot;, -apple-system, BlinkMacSystemFont, &quot;Segoe UI&quot;, sans-serif;font-size:16px;font-weight:400;text-anchor:start;dominant-baseline:auto"/>

<rect x="68" y="380" width="164" height="16" rx="4" fill="#E24B4A" opacity="0.2" style="fill:rgb(226, 75, 74);stroke:none;color:rgb(255, 255, 255);stroke-width:1px;stroke-linecap:butt;stroke-linejoin:miter;opacity:0.2;font-family:&quot;Anthropic Sans&quot;, -apple-system, BlinkMacSystemFont, &quot;Segoe UI&quot;, sans-serif;font-size:16px;font-weight:400;text-anchor:start;dominant-baseline:auto"/>
<text x="150" y="392" text-anchor="middle" font-family="sans-serif" font-size="10" fill="#E24B4A" style="fill:rgb(226, 75, 74);stroke:none;color:rgb(255, 255, 255);stroke-width:1px;stroke-linecap:butt;stroke-linejoin:miter;opacity:1;font-family:sans-serif;font-size:10px;font-weight:400;text-anchor:middle;dominant-baseline:auto">REAR (tail lights)</text>

<line x1="150" y1="373" x2="150" y2="380" stroke="#E24B4A" stroke-width="1" stroke-dasharray="3,2" style="fill:rgb(0, 0, 0);stroke:rgb(226, 75, 74);color:rgb(255, 255, 255);stroke-width:1px;stroke-dasharray:3px, 2px;stroke-linecap:butt;stroke-linejoin:miter;opacity:1;font-family:&quot;Anthropic Sans&quot;, -apple-system, BlinkMacSystemFont, &quot;Segoe UI&quot;, sans-serif;font-size:16px;font-weight:400;text-anchor:start;dominant-baseline:auto"/>

<rect x="44" y="450" width="212" height="16" rx="4" fill="#0077AA" opacity="0.15" style="fill:rgb(0, 119, 170);stroke:none;color:rgb(255, 255, 255);stroke-width:1px;stroke-linecap:butt;stroke-linejoin:miter;opacity:0.15;font-family:&quot;Anthropic Sans&quot;, -apple-system, BlinkMacSystemFont, &quot;Segoe UI&quot;, sans-serif;font-size:16px;font-weight:400;text-anchor:start;dominant-baseline:auto"/>
<text x="150" y="462" text-anchor="middle" font-family="sans-serif" font-size="10" fill="#0077AA" style="fill:rgb(0, 119, 170);stroke:none;color:rgb(255, 255, 255);stroke-width:1px;stroke-linecap:butt;stroke-linejoin:miter;opacity:1;font-family:sans-serif;font-size:10px;font-weight:400;text-anchor:middle;dominant-baseline:auto">iconSize:[60,100] anchor:[30,50]</text>

<rect x="264" y="450" width="192" height="16" rx="4" fill="#0077AA" opacity="0.15" style="fill:rgb(0, 119, 170);stroke:none;color:rgb(255, 255, 255);stroke-width:1px;stroke-linecap:butt;stroke-linejoin:miter;opacity:0.15;font-family:&quot;Anthropic Sans&quot;, -apple-system, BlinkMacSystemFont, &quot;Segoe UI&quot;, sans-serif;font-size:16px;font-weight:400;text-anchor:start;dominant-baseline:auto"/>
<text x="360" y="462" text-anchor="middle" font-family="sans-serif" font-size="10" fill="#0077AA" style="fill:rgb(0, 119, 170);stroke:none;color:rgb(255, 255, 255);stroke-width:1px;stroke-linecap:butt;stroke-linejoin:miter;opacity:1;font-family:sans-serif;font-size:10px;font-weight:400;text-anchor:middle;dominant-baseline:auto">iconSize:[36,60] anchor:[18,30]</text>

<rect x="464" y="450" width="172" height="16" rx="4" fill="#0077AA" opacity="0.15" style="fill:rgb(0, 119, 170);stroke:none;color:rgb(255, 255, 255);stroke-width:1px;stroke-linecap:butt;stroke-linejoin:miter;opacity:0.15;font-family:&quot;Anthropic Sans&quot;, -apple-system, BlinkMacSystemFont, &quot;Segoe UI&quot;, sans-serif;font-size:16px;font-weight:400;text-anchor:start;dominant-baseline:auto"/>
<text x="550" y="462" text-anchor="middle" font-family="sans-serif" font-size="10" fill="#0077AA" style="fill:rgb(0, 119, 170);stroke:none;color:rgb(255, 255, 255);stroke-width:1px;stroke-linecap:butt;stroke-linejoin:miter;opacity:1;font-family:sans-serif;font-size:10px;font-weight:400;text-anchor:middle;dominant-baseline:auto">iconSize:[20,34] anchor:[10,17]</text>

</svg>